<mxfile host="app.diagrams.net" agent="Mozilla/5.0 (Macintosh; Intel Mac OS X 10_15_7) AppleWebKit/605.1.15 (KHTML, like Gecko) Version/18.1 Safari/605.1.15" version="26.0.13">
  <diagram name="Page-1" id="6f0lnVOFxRN2urdJTs7O">
    <mxGraphModel dx="995" dy="645" grid="1" gridSize="10" guides="1" tooltips="1" connect="1" arrows="1" fold="1" page="1" pageScale="1" pageWidth="827" pageHeight="1169" math="0" shadow="0">
      <root>
        <mxCell id="0" />
        <mxCell id="1" parent="0" />
        <mxCell id="4W7qGu7UE1y5XjQWO0UA-1" value="Ex 1:" style="text;html=1;align=center;verticalAlign=middle;resizable=0;points=[];autosize=1;strokeColor=none;fillColor=none;" parent="1" vertex="1">
          <mxGeometry x="20" y="10" width="50" height="30" as="geometry" />
        </mxCell>
        <mxCell id="4W7qGu7UE1y5XjQWO0UA-2" value="Schools" style="whiteSpace=wrap;html=1;align=center;" parent="1" vertex="1">
          <mxGeometry x="110" y="80" width="80" height="40" as="geometry" />
        </mxCell>
        <mxCell id="4W7qGu7UE1y5XjQWO0UA-5" value="ID" style="ellipse;whiteSpace=wrap;html=1;align=center;fontStyle=4;" parent="1" vertex="1">
          <mxGeometry x="220" y="20" width="70" height="40" as="geometry" />
        </mxCell>
        <mxCell id="4W7qGu7UE1y5XjQWO0UA-6" value="Name" style="ellipse;whiteSpace=wrap;html=1;align=center;" parent="1" vertex="1">
          <mxGeometry x="220" y="110" width="70" height="40" as="geometry" />
        </mxCell>
        <mxCell id="4W7qGu7UE1y5XjQWO0UA-7" value="Province" style="ellipse;whiteSpace=wrap;html=1;align=center;" parent="1" vertex="1">
          <mxGeometry x="10" y="70" width="70" height="40" as="geometry" />
        </mxCell>
        <mxCell id="4W7qGu7UE1y5XjQWO0UA-8" value="" style="endArrow=none;html=1;rounded=0;exitX=1;exitY=0;exitDx=0;exitDy=0;entryX=0.5;entryY=1;entryDx=0;entryDy=0;" parent="1" source="4W7qGu7UE1y5XjQWO0UA-2" target="4W7qGu7UE1y5XjQWO0UA-5" edge="1">
          <mxGeometry relative="1" as="geometry">
            <mxPoint x="320" y="260" as="sourcePoint" />
            <mxPoint x="480" y="260" as="targetPoint" />
          </mxGeometry>
        </mxCell>
        <mxCell id="4W7qGu7UE1y5XjQWO0UA-9" value="" style="endArrow=none;html=1;rounded=0;exitX=1;exitY=1;exitDx=0;exitDy=0;entryX=0;entryY=0.5;entryDx=0;entryDy=0;" parent="1" source="4W7qGu7UE1y5XjQWO0UA-2" target="4W7qGu7UE1y5XjQWO0UA-6" edge="1">
          <mxGeometry relative="1" as="geometry">
            <mxPoint x="200" y="90" as="sourcePoint" />
            <mxPoint x="265" y="70" as="targetPoint" />
          </mxGeometry>
        </mxCell>
        <mxCell id="4W7qGu7UE1y5XjQWO0UA-10" value="" style="endArrow=none;html=1;rounded=0;exitX=0;exitY=0.5;exitDx=0;exitDy=0;entryX=1;entryY=0.5;entryDx=0;entryDy=0;" parent="1" source="4W7qGu7UE1y5XjQWO0UA-2" target="4W7qGu7UE1y5XjQWO0UA-7" edge="1">
          <mxGeometry relative="1" as="geometry">
            <mxPoint x="200" y="130" as="sourcePoint" />
            <mxPoint x="230" y="140" as="targetPoint" />
          </mxGeometry>
        </mxCell>
        <mxCell id="4W7qGu7UE1y5XjQWO0UA-11" value="" style="endArrow=none;html=1;rounded=0;exitX=0.5;exitY=1;exitDx=0;exitDy=0;entryX=0.5;entryY=0;entryDx=0;entryDy=0;" parent="1" source="4W7qGu7UE1y5XjQWO0UA-2" target="4W7qGu7UE1y5XjQWO0UA-13" edge="1">
          <mxGeometry relative="1" as="geometry">
            <mxPoint x="320" y="260" as="sourcePoint" />
            <mxPoint x="150" y="200" as="targetPoint" />
          </mxGeometry>
        </mxCell>
        <mxCell id="4W7qGu7UE1y5XjQWO0UA-12" value="1" style="resizable=0;html=1;whiteSpace=wrap;align=right;verticalAlign=bottom;" parent="4W7qGu7UE1y5XjQWO0UA-11" connectable="0" vertex="1">
          <mxGeometry x="1" relative="1" as="geometry">
            <mxPoint y="-30" as="offset" />
          </mxGeometry>
        </mxCell>
        <mxCell id="4W7qGu7UE1y5XjQWO0UA-13" value="Compete" style="shape=rhombus;perimeter=rhombusPerimeter;whiteSpace=wrap;html=1;align=center;" parent="1" vertex="1">
          <mxGeometry x="140" y="190" width="90" height="60" as="geometry" />
        </mxCell>
        <mxCell id="4W7qGu7UE1y5XjQWO0UA-14" value="Teams" style="whiteSpace=wrap;html=1;align=center;" parent="1" vertex="1">
          <mxGeometry x="190" y="330" width="80" height="40" as="geometry" />
        </mxCell>
        <mxCell id="4W7qGu7UE1y5XjQWO0UA-15" value="" style="shape=link;html=1;rounded=0;exitX=0.5;exitY=1;exitDx=0;exitDy=0;entryX=0.5;entryY=0;entryDx=0;entryDy=0;" parent="1" source="4W7qGu7UE1y5XjQWO0UA-13" target="4W7qGu7UE1y5XjQWO0UA-14" edge="1">
          <mxGeometry relative="1" as="geometry">
            <mxPoint x="320" y="260" as="sourcePoint" />
            <mxPoint x="480" y="260" as="targetPoint" />
          </mxGeometry>
        </mxCell>
        <mxCell id="4W7qGu7UE1y5XjQWO0UA-16" value="N" style="resizable=0;html=1;whiteSpace=wrap;align=right;verticalAlign=bottom;" parent="4W7qGu7UE1y5XjQWO0UA-15" connectable="0" vertex="1">
          <mxGeometry x="1" relative="1" as="geometry">
            <mxPoint y="-30" as="offset" />
          </mxGeometry>
        </mxCell>
        <mxCell id="4W7qGu7UE1y5XjQWO0UA-18" value="Name" style="ellipse;whiteSpace=wrap;html=1;align=center;fontStyle=4;" parent="1" vertex="1">
          <mxGeometry x="50" y="330" width="70" height="40" as="geometry" />
        </mxCell>
        <mxCell id="4W7qGu7UE1y5XjQWO0UA-19" value="" style="endArrow=none;html=1;rounded=0;exitX=1;exitY=0.5;exitDx=0;exitDy=0;entryX=0;entryY=0.5;entryDx=0;entryDy=0;" parent="1" source="4W7qGu7UE1y5XjQWO0UA-18" target="4W7qGu7UE1y5XjQWO0UA-14" edge="1">
          <mxGeometry relative="1" as="geometry">
            <mxPoint x="320" y="260" as="sourcePoint" />
            <mxPoint x="480" y="260" as="targetPoint" />
          </mxGeometry>
        </mxCell>
        <mxCell id="4W7qGu7UE1y5XjQWO0UA-20" value="Contains" style="shape=rhombus;perimeter=rhombusPerimeter;whiteSpace=wrap;html=1;align=center;" parent="1" vertex="1">
          <mxGeometry x="330.5" y="280" width="83" height="60" as="geometry" />
        </mxCell>
        <mxCell id="4W7qGu7UE1y5XjQWO0UA-21" value="1" style="endArrow=none;html=1;rounded=0;exitX=1;exitY=0;exitDx=0;exitDy=0;entryX=0;entryY=0.5;entryDx=0;entryDy=0;shape=link;" parent="1" source="4W7qGu7UE1y5XjQWO0UA-14" target="4W7qGu7UE1y5XjQWO0UA-20" edge="1">
          <mxGeometry x="-0.1429" y="10" relative="1" as="geometry">
            <mxPoint x="320" y="260" as="sourcePoint" />
            <mxPoint x="480" y="260" as="targetPoint" />
            <mxPoint as="offset" />
          </mxGeometry>
        </mxCell>
        <mxCell id="4W7qGu7UE1y5XjQWO0UA-23" value="" style="shape=link;html=1;rounded=0;exitX=1;exitY=0.5;exitDx=0;exitDy=0;entryX=0;entryY=0;entryDx=0;entryDy=0;" parent="1" source="4W7qGu7UE1y5XjQWO0UA-20" target="4W7qGu7UE1y5XjQWO0UA-25" edge="1">
          <mxGeometry relative="1" as="geometry">
            <mxPoint x="320" y="260" as="sourcePoint" />
            <mxPoint x="480" y="350" as="targetPoint" />
          </mxGeometry>
        </mxCell>
        <mxCell id="4W7qGu7UE1y5XjQWO0UA-24" value="N" style="resizable=0;html=1;whiteSpace=wrap;align=right;verticalAlign=bottom;" parent="4W7qGu7UE1y5XjQWO0UA-23" connectable="0" vertex="1">
          <mxGeometry x="1" relative="1" as="geometry">
            <mxPoint x="-20" y="-10" as="offset" />
          </mxGeometry>
        </mxCell>
        <mxCell id="4W7qGu7UE1y5XjQWO0UA-25" value="Students" style="whiteSpace=wrap;html=1;align=center;" parent="1" vertex="1">
          <mxGeometry x="480" y="330" width="80" height="40" as="geometry" />
        </mxCell>
        <mxCell id="4W7qGu7UE1y5XjQWO0UA-27" value="Leader" style="shape=rhombus;perimeter=rhombusPerimeter;whiteSpace=wrap;html=1;align=center;" parent="1" vertex="1">
          <mxGeometry x="331" y="360" width="83" height="60" as="geometry" />
        </mxCell>
        <mxCell id="4W7qGu7UE1y5XjQWO0UA-28" value="" style="shape=link;html=1;rounded=0;exitX=1;exitY=1;exitDx=0;exitDy=0;entryX=0;entryY=0.5;entryDx=0;entryDy=0;" parent="1" source="4W7qGu7UE1y5XjQWO0UA-14" target="4W7qGu7UE1y5XjQWO0UA-27" edge="1">
          <mxGeometry relative="1" as="geometry">
            <mxPoint x="320" y="260" as="sourcePoint" />
            <mxPoint x="480" y="260" as="targetPoint" />
          </mxGeometry>
        </mxCell>
        <mxCell id="4W7qGu7UE1y5XjQWO0UA-29" value="1" style="resizable=0;html=1;whiteSpace=wrap;align=right;verticalAlign=bottom;" parent="4W7qGu7UE1y5XjQWO0UA-28" connectable="0" vertex="1">
          <mxGeometry x="1" relative="1" as="geometry">
            <mxPoint x="-20" y="-10" as="offset" />
          </mxGeometry>
        </mxCell>
        <mxCell id="4W7qGu7UE1y5XjQWO0UA-30" value="" style="shape=link;html=1;rounded=0;exitX=0;exitY=1;exitDx=0;exitDy=0;entryX=1;entryY=0.5;entryDx=0;entryDy=0;" parent="1" source="4W7qGu7UE1y5XjQWO0UA-25" target="4W7qGu7UE1y5XjQWO0UA-27" edge="1">
          <mxGeometry relative="1" as="geometry">
            <mxPoint x="280" y="380" as="sourcePoint" />
            <mxPoint x="341" y="400" as="targetPoint" />
          </mxGeometry>
        </mxCell>
        <mxCell id="4W7qGu7UE1y5XjQWO0UA-31" value="1" style="resizable=0;html=1;whiteSpace=wrap;align=right;verticalAlign=bottom;" parent="4W7qGu7UE1y5XjQWO0UA-30" connectable="0" vertex="1">
          <mxGeometry x="1" relative="1" as="geometry">
            <mxPoint x="37" y="-10" as="offset" />
          </mxGeometry>
        </mxCell>
        <mxCell id="4W7qGu7UE1y5XjQWO0UA-32" value="ID" style="ellipse;whiteSpace=wrap;html=1;align=center;fontStyle=4;" parent="1" vertex="1">
          <mxGeometry x="570" y="270" width="70" height="40" as="geometry" />
        </mxCell>
        <mxCell id="4W7qGu7UE1y5XjQWO0UA-33" value="Name" style="ellipse;whiteSpace=wrap;html=1;align=center;" parent="1" vertex="1">
          <mxGeometry x="580" y="340" width="70" height="40" as="geometry" />
        </mxCell>
        <mxCell id="4W7qGu7UE1y5XjQWO0UA-34" value="DOB" style="ellipse;whiteSpace=wrap;html=1;align=center;" parent="1" vertex="1">
          <mxGeometry x="560" y="410" width="70" height="40" as="geometry" />
        </mxCell>
        <mxCell id="4W7qGu7UE1y5XjQWO0UA-36" value="" style="endArrow=none;html=1;rounded=0;exitX=1;exitY=0;exitDx=0;exitDy=0;entryX=0;entryY=0.5;entryDx=0;entryDy=0;" parent="1" source="4W7qGu7UE1y5XjQWO0UA-25" target="4W7qGu7UE1y5XjQWO0UA-32" edge="1">
          <mxGeometry relative="1" as="geometry">
            <mxPoint x="320" y="260" as="sourcePoint" />
            <mxPoint x="480" y="260" as="targetPoint" />
          </mxGeometry>
        </mxCell>
        <mxCell id="4W7qGu7UE1y5XjQWO0UA-38" value="" style="endArrow=none;html=1;rounded=0;exitX=1;exitY=0.5;exitDx=0;exitDy=0;entryX=0;entryY=0.5;entryDx=0;entryDy=0;" parent="1" source="4W7qGu7UE1y5XjQWO0UA-25" target="4W7qGu7UE1y5XjQWO0UA-33" edge="1">
          <mxGeometry relative="1" as="geometry">
            <mxPoint x="570" y="340" as="sourcePoint" />
            <mxPoint x="580" y="300" as="targetPoint" />
          </mxGeometry>
        </mxCell>
        <mxCell id="4W7qGu7UE1y5XjQWO0UA-39" value="" style="endArrow=none;html=1;rounded=0;exitX=1;exitY=1;exitDx=0;exitDy=0;entryX=0.5;entryY=0;entryDx=0;entryDy=0;" parent="1" source="4W7qGu7UE1y5XjQWO0UA-25" target="4W7qGu7UE1y5XjQWO0UA-34" edge="1">
          <mxGeometry relative="1" as="geometry">
            <mxPoint x="570" y="360" as="sourcePoint" />
            <mxPoint x="590" y="370" as="targetPoint" />
          </mxGeometry>
        </mxCell>
        <mxCell id="4W7qGu7UE1y5XjQWO0UA-40" value="Ex 2:" style="text;html=1;align=center;verticalAlign=middle;resizable=0;points=[];autosize=1;strokeColor=none;fillColor=none;" parent="1" vertex="1">
          <mxGeometry x="30" y="490" width="50" height="30" as="geometry" />
        </mxCell>
        <mxCell id="Z-YFugP0-v1G_HhNjP73-1" value="Buildings" style="whiteSpace=wrap;html=1;align=center;" vertex="1" parent="1">
          <mxGeometry x="80" y="520" width="90" height="40" as="geometry" />
        </mxCell>
        <mxCell id="Z-YFugP0-v1G_HhNjP73-4" value="Name" style="ellipse;whiteSpace=wrap;html=1;align=center;fontStyle=4;" vertex="1" parent="1">
          <mxGeometry x="10" y="580" width="70" height="40" as="geometry" />
        </mxCell>
        <mxCell id="Z-YFugP0-v1G_HhNjP73-5" value="" style="endArrow=none;html=1;rounded=0;exitX=1;exitY=0.5;exitDx=0;exitDy=0;entryX=0.25;entryY=1;entryDx=0;entryDy=0;" edge="1" parent="1" source="Z-YFugP0-v1G_HhNjP73-4" target="Z-YFugP0-v1G_HhNjP73-1">
          <mxGeometry relative="1" as="geometry">
            <mxPoint x="280" y="515" as="sourcePoint" />
            <mxPoint x="150" y="605" as="targetPoint" />
          </mxGeometry>
        </mxCell>
        <mxCell id="Z-YFugP0-v1G_HhNjP73-6" value="Contains" style="shape=rhombus;perimeter=rhombusPerimeter;whiteSpace=wrap;html=1;align=center;" vertex="1" parent="1">
          <mxGeometry x="170" y="585" width="80" height="60" as="geometry" />
        </mxCell>
        <mxCell id="Z-YFugP0-v1G_HhNjP73-7" value="1" style="endArrow=none;html=1;rounded=0;exitX=0.75;exitY=1;exitDx=0;exitDy=0;entryX=0;entryY=0;entryDx=0;entryDy=0;shape=link;" edge="1" parent="1" source="Z-YFugP0-v1G_HhNjP73-1" target="Z-YFugP0-v1G_HhNjP73-6">
          <mxGeometry x="-0.03" y="-12" relative="1" as="geometry">
            <mxPoint x="260" y="440" as="sourcePoint" />
            <mxPoint x="420" y="440" as="targetPoint" />
            <mxPoint y="1" as="offset" />
          </mxGeometry>
        </mxCell>
        <mxCell id="Z-YFugP0-v1G_HhNjP73-9" value="Rooms" style="shape=ext;margin=3;double=1;whiteSpace=wrap;html=1;align=center;" vertex="1" parent="1">
          <mxGeometry x="300" y="660" width="100" height="40" as="geometry" />
        </mxCell>
        <mxCell id="Z-YFugP0-v1G_HhNjP73-10" value="" style="shape=link;html=1;rounded=0;exitX=1;exitY=1;exitDx=0;exitDy=0;entryX=0;entryY=0.5;entryDx=0;entryDy=0;" edge="1" parent="1" source="Z-YFugP0-v1G_HhNjP73-6" target="Z-YFugP0-v1G_HhNjP73-9">
          <mxGeometry relative="1" as="geometry">
            <mxPoint x="260" y="440" as="sourcePoint" />
            <mxPoint x="420" y="440" as="targetPoint" />
          </mxGeometry>
        </mxCell>
        <mxCell id="Z-YFugP0-v1G_HhNjP73-11" value="N" style="resizable=0;html=1;whiteSpace=wrap;align=right;verticalAlign=bottom;" connectable="0" vertex="1" parent="Z-YFugP0-v1G_HhNjP73-10">
          <mxGeometry x="1" relative="1" as="geometry">
            <mxPoint x="-20" y="-30" as="offset" />
          </mxGeometry>
        </mxCell>
        <mxCell id="Z-YFugP0-v1G_HhNjP73-12" value="&lt;span style=&quot;border-bottom-width: 1px; border-bottom-style: dotted; border-bottom-color: currentcolor;&quot;&gt;Room num&lt;/span&gt;" style="ellipse;whiteSpace=wrap;html=1;align=center;" vertex="1" parent="1">
          <mxGeometry x="215" y="730" width="80" height="40" as="geometry" />
        </mxCell>
        <mxCell id="Z-YFugP0-v1G_HhNjP73-13" value="" style="endArrow=none;html=1;rounded=0;exitX=0;exitY=1;exitDx=0;exitDy=0;entryX=0.5;entryY=0;entryDx=0;entryDy=0;" edge="1" parent="1" source="Z-YFugP0-v1G_HhNjP73-9" target="Z-YFugP0-v1G_HhNjP73-12">
          <mxGeometry relative="1" as="geometry">
            <mxPoint x="260" y="500" as="sourcePoint" />
            <mxPoint x="420" y="500" as="targetPoint" />
          </mxGeometry>
        </mxCell>
        <mxCell id="Z-YFugP0-v1G_HhNjP73-14" value="Length" style="ellipse;whiteSpace=wrap;html=1;align=center;" vertex="1" parent="1">
          <mxGeometry x="280" y="585" width="70" height="40" as="geometry" />
        </mxCell>
        <mxCell id="Z-YFugP0-v1G_HhNjP73-15" value="Wide" style="ellipse;whiteSpace=wrap;html=1;align=center;" vertex="1" parent="1">
          <mxGeometry x="378.5" y="585" width="70" height="40" as="geometry" />
        </mxCell>
        <mxCell id="Z-YFugP0-v1G_HhNjP73-16" value="Function" style="ellipse;whiteSpace=wrap;html=1;align=center;" vertex="1" parent="1">
          <mxGeometry x="379" y="730" width="70" height="40" as="geometry" />
        </mxCell>
        <mxCell id="Z-YFugP0-v1G_HhNjP73-17" value="" style="endArrow=none;html=1;rounded=0;exitX=0.5;exitY=1;exitDx=0;exitDy=0;entryX=0.5;entryY=0;entryDx=0;entryDy=0;" edge="1" parent="1" source="Z-YFugP0-v1G_HhNjP73-9" target="Z-YFugP0-v1G_HhNjP73-16">
          <mxGeometry relative="1" as="geometry">
            <mxPoint x="310" y="710" as="sourcePoint" />
            <mxPoint x="265" y="740" as="targetPoint" />
          </mxGeometry>
        </mxCell>
        <mxCell id="Z-YFugP0-v1G_HhNjP73-18" value="" style="endArrow=none;html=1;rounded=0;exitX=0.25;exitY=0;exitDx=0;exitDy=0;entryX=0.5;entryY=1;entryDx=0;entryDy=0;" edge="1" parent="1" source="Z-YFugP0-v1G_HhNjP73-9" target="Z-YFugP0-v1G_HhNjP73-14">
          <mxGeometry relative="1" as="geometry">
            <mxPoint x="360" y="710" as="sourcePoint" />
            <mxPoint x="424" y="740" as="targetPoint" />
          </mxGeometry>
        </mxCell>
        <mxCell id="Z-YFugP0-v1G_HhNjP73-19" value="" style="endArrow=none;html=1;rounded=0;exitX=0.75;exitY=0;exitDx=0;exitDy=0;entryX=0.5;entryY=1;entryDx=0;entryDy=0;" edge="1" parent="1" source="Z-YFugP0-v1G_HhNjP73-9" target="Z-YFugP0-v1G_HhNjP73-15">
          <mxGeometry relative="1" as="geometry">
            <mxPoint x="335" y="670" as="sourcePoint" />
            <mxPoint x="325" y="635" as="targetPoint" />
          </mxGeometry>
        </mxCell>
        <mxCell id="Z-YFugP0-v1G_HhNjP73-20" value="Area" style="ellipse;whiteSpace=wrap;html=1;align=center;" vertex="1" parent="1">
          <mxGeometry x="300" y="752.5" width="70" height="40" as="geometry" />
        </mxCell>
        <mxCell id="Z-YFugP0-v1G_HhNjP73-21" value="" style="endArrow=none;html=1;rounded=0;exitX=0.25;exitY=1;exitDx=0;exitDy=0;entryX=0.5;entryY=0;entryDx=0;entryDy=0;" edge="1" parent="1" target="Z-YFugP0-v1G_HhNjP73-20" source="Z-YFugP0-v1G_HhNjP73-9">
          <mxGeometry relative="1" as="geometry">
            <mxPoint x="301" y="707.5" as="sourcePoint" />
            <mxPoint x="186" y="762.5" as="targetPoint" />
          </mxGeometry>
        </mxCell>
        <mxCell id="Z-YFugP0-v1G_HhNjP73-22" value="Establish year" style="ellipse;whiteSpace=wrap;html=1;align=center;" vertex="1" parent="1">
          <mxGeometry x="215" y="510" width="70" height="40" as="geometry" />
        </mxCell>
        <mxCell id="Z-YFugP0-v1G_HhNjP73-23" value="" style="endArrow=none;html=1;rounded=0;exitX=1;exitY=0.5;exitDx=0;exitDy=0;entryX=0;entryY=0.5;entryDx=0;entryDy=0;" edge="1" parent="1" target="Z-YFugP0-v1G_HhNjP73-22" source="Z-YFugP0-v1G_HhNjP73-1">
          <mxGeometry relative="1" as="geometry">
            <mxPoint x="260" y="575" as="sourcePoint" />
            <mxPoint x="200" y="540" as="targetPoint" />
          </mxGeometry>
        </mxCell>
        <mxCell id="Z-YFugP0-v1G_HhNjP73-24" value="" style="endArrow=none;html=1;rounded=0;exitX=1;exitY=0.5;exitDx=0;exitDy=0;" edge="1" parent="1" source="Z-YFugP0-v1G_HhNjP73-9">
          <mxGeometry relative="1" as="geometry">
            <mxPoint x="260" y="540" as="sourcePoint" />
            <mxPoint x="480" y="680" as="targetPoint" />
          </mxGeometry>
        </mxCell>
        <mxCell id="Z-YFugP0-v1G_HhNjP73-25" value="1" style="resizable=0;html=1;whiteSpace=wrap;align=right;verticalAlign=bottom;" connectable="0" vertex="1" parent="Z-YFugP0-v1G_HhNjP73-24">
          <mxGeometry x="1" relative="1" as="geometry">
            <mxPoint x="-40" as="offset" />
          </mxGeometry>
        </mxCell>
        <mxCell id="Z-YFugP0-v1G_HhNjP73-26" value="Has" style="shape=rhombus;perimeter=rhombusPerimeter;whiteSpace=wrap;html=1;align=center;" vertex="1" parent="1">
          <mxGeometry x="480" y="650" width="90" height="60" as="geometry" />
        </mxCell>
        <mxCell id="Z-YFugP0-v1G_HhNjP73-27" value="N" style="endArrow=none;html=1;rounded=0;exitX=1;exitY=0.5;exitDx=0;exitDy=0;shape=link;entryX=0;entryY=0.5;entryDx=0;entryDy=0;" edge="1" parent="1" source="Z-YFugP0-v1G_HhNjP73-26" target="Z-YFugP0-v1G_HhNjP73-28">
          <mxGeometry x="-0.2" y="10" relative="1" as="geometry">
            <mxPoint x="260" y="540" as="sourcePoint" />
            <mxPoint x="620" y="680" as="targetPoint" />
            <mxPoint as="offset" />
          </mxGeometry>
        </mxCell>
        <mxCell id="Z-YFugP0-v1G_HhNjP73-28" value="Supplies" style="whiteSpace=wrap;html=1;align=center;" vertex="1" parent="1">
          <mxGeometry x="630" y="660" width="80" height="40" as="geometry" />
        </mxCell>
        <mxCell id="Z-YFugP0-v1G_HhNjP73-30" value="ID" style="ellipse;whiteSpace=wrap;html=1;align=center;fontStyle=4;" vertex="1" parent="1">
          <mxGeometry x="570" y="730" width="70" height="40" as="geometry" />
        </mxCell>
        <mxCell id="Z-YFugP0-v1G_HhNjP73-31" value="Name" style="ellipse;whiteSpace=wrap;html=1;align=center;" vertex="1" parent="1">
          <mxGeometry x="700" y="720" width="70" height="40" as="geometry" />
        </mxCell>
        <mxCell id="Z-YFugP0-v1G_HhNjP73-32" value="Details" style="ellipse;whiteSpace=wrap;html=1;align=center;" vertex="1" parent="1">
          <mxGeometry x="680" y="580" width="70" height="40" as="geometry" />
        </mxCell>
        <mxCell id="Z-YFugP0-v1G_HhNjP73-33" value="" style="endArrow=none;html=1;rounded=0;exitX=0.25;exitY=1;exitDx=0;exitDy=0;entryX=0.5;entryY=0;entryDx=0;entryDy=0;" edge="1" parent="1" source="Z-YFugP0-v1G_HhNjP73-28" target="Z-YFugP0-v1G_HhNjP73-30">
          <mxGeometry relative="1" as="geometry">
            <mxPoint x="260" y="540" as="sourcePoint" />
            <mxPoint x="420" y="540" as="targetPoint" />
          </mxGeometry>
        </mxCell>
        <mxCell id="Z-YFugP0-v1G_HhNjP73-34" value="" style="endArrow=none;html=1;rounded=0;exitX=0.75;exitY=1;exitDx=0;exitDy=0;entryX=0.5;entryY=0;entryDx=0;entryDy=0;" edge="1" parent="1" source="Z-YFugP0-v1G_HhNjP73-28" target="Z-YFugP0-v1G_HhNjP73-31">
          <mxGeometry relative="1" as="geometry">
            <mxPoint x="660" y="710" as="sourcePoint" />
            <mxPoint x="615" y="740" as="targetPoint" />
          </mxGeometry>
        </mxCell>
        <mxCell id="Z-YFugP0-v1G_HhNjP73-35" value="" style="endArrow=none;html=1;rounded=0;exitX=0.75;exitY=0;exitDx=0;exitDy=0;entryX=0.5;entryY=1;entryDx=0;entryDy=0;" edge="1" parent="1" source="Z-YFugP0-v1G_HhNjP73-28" target="Z-YFugP0-v1G_HhNjP73-32">
          <mxGeometry relative="1" as="geometry">
            <mxPoint x="700" y="710" as="sourcePoint" />
            <mxPoint x="745" y="730" as="targetPoint" />
          </mxGeometry>
        </mxCell>
        <mxCell id="Z-YFugP0-v1G_HhNjP73-36" value="Ex 3:" style="text;html=1;align=center;verticalAlign=middle;resizable=0;points=[];autosize=1;strokeColor=none;fillColor=none;" vertex="1" parent="1">
          <mxGeometry x="40" y="810" width="50" height="30" as="geometry" />
        </mxCell>
        <mxCell id="Z-YFugP0-v1G_HhNjP73-45" style="rounded=0;orthogonalLoop=1;jettySize=auto;html=1;exitX=0;exitY=0;exitDx=0;exitDy=0;entryX=1;entryY=1;entryDx=0;entryDy=0;endArrow=none;startFill=0;" edge="1" parent="1" source="Z-YFugP0-v1G_HhNjP73-37" target="Z-YFugP0-v1G_HhNjP73-42">
          <mxGeometry relative="1" as="geometry" />
        </mxCell>
        <mxCell id="Z-YFugP0-v1G_HhNjP73-46" style="edgeStyle=none;shape=connector;rounded=0;orthogonalLoop=1;jettySize=auto;html=1;exitX=0.25;exitY=0;exitDx=0;exitDy=0;entryX=0.5;entryY=1;entryDx=0;entryDy=0;strokeColor=default;align=center;verticalAlign=middle;fontFamily=Helvetica;fontSize=11;fontColor=default;labelBackgroundColor=default;startFill=0;endArrow=none;" edge="1" parent="1" source="Z-YFugP0-v1G_HhNjP73-37" target="Z-YFugP0-v1G_HhNjP73-43">
          <mxGeometry relative="1" as="geometry" />
        </mxCell>
        <mxCell id="Z-YFugP0-v1G_HhNjP73-47" style="edgeStyle=none;shape=connector;rounded=0;orthogonalLoop=1;jettySize=auto;html=1;exitX=1;exitY=0;exitDx=0;exitDy=0;entryX=0.5;entryY=1;entryDx=0;entryDy=0;strokeColor=default;align=center;verticalAlign=middle;fontFamily=Helvetica;fontSize=11;fontColor=default;labelBackgroundColor=default;startFill=0;endArrow=none;" edge="1" parent="1" source="Z-YFugP0-v1G_HhNjP73-37" target="Z-YFugP0-v1G_HhNjP73-44">
          <mxGeometry relative="1" as="geometry" />
        </mxCell>
        <mxCell id="Z-YFugP0-v1G_HhNjP73-48" style="edgeStyle=none;shape=connector;rounded=0;orthogonalLoop=1;jettySize=auto;html=1;exitX=0;exitY=1;exitDx=0;exitDy=0;entryX=1;entryY=0;entryDx=0;entryDy=0;strokeColor=default;align=center;verticalAlign=middle;fontFamily=Helvetica;fontSize=11;fontColor=default;labelBackgroundColor=default;startFill=0;endArrow=none;" edge="1" parent="1" source="Z-YFugP0-v1G_HhNjP73-37" target="Z-YFugP0-v1G_HhNjP73-38">
          <mxGeometry relative="1" as="geometry" />
        </mxCell>
        <mxCell id="Z-YFugP0-v1G_HhNjP73-49" style="edgeStyle=none;shape=connector;rounded=0;orthogonalLoop=1;jettySize=auto;html=1;exitX=0.5;exitY=1;exitDx=0;exitDy=0;entryX=0.5;entryY=0;entryDx=0;entryDy=0;strokeColor=default;align=center;verticalAlign=middle;fontFamily=Helvetica;fontSize=11;fontColor=default;labelBackgroundColor=default;startFill=0;endArrow=none;" edge="1" parent="1" source="Z-YFugP0-v1G_HhNjP73-37" target="Z-YFugP0-v1G_HhNjP73-39">
          <mxGeometry relative="1" as="geometry" />
        </mxCell>
        <mxCell id="Z-YFugP0-v1G_HhNjP73-50" style="edgeStyle=none;shape=connector;rounded=0;orthogonalLoop=1;jettySize=auto;html=1;exitX=1;exitY=1;exitDx=0;exitDy=0;entryX=0.5;entryY=0;entryDx=0;entryDy=0;strokeColor=default;align=center;verticalAlign=middle;fontFamily=Helvetica;fontSize=11;fontColor=default;labelBackgroundColor=default;startFill=0;endArrow=none;" edge="1" parent="1" source="Z-YFugP0-v1G_HhNjP73-37" target="Z-YFugP0-v1G_HhNjP73-40">
          <mxGeometry relative="1" as="geometry" />
        </mxCell>
        <mxCell id="Z-YFugP0-v1G_HhNjP73-37" value="Teachers" style="whiteSpace=wrap;html=1;align=center;" vertex="1" parent="1">
          <mxGeometry x="100" y="900" width="90" height="40" as="geometry" />
        </mxCell>
        <mxCell id="Z-YFugP0-v1G_HhNjP73-38" value="ID" style="ellipse;whiteSpace=wrap;html=1;align=center;fontStyle=4;" vertex="1" parent="1">
          <mxGeometry x="20" y="940" width="60" height="40" as="geometry" />
        </mxCell>
        <mxCell id="Z-YFugP0-v1G_HhNjP73-39" value="Name" style="ellipse;whiteSpace=wrap;html=1;align=center;" vertex="1" parent="1">
          <mxGeometry x="100" y="960" width="55" height="40" as="geometry" />
        </mxCell>
        <mxCell id="Z-YFugP0-v1G_HhNjP73-40" value="YOB" style="ellipse;whiteSpace=wrap;html=1;align=center;" vertex="1" parent="1">
          <mxGeometry x="175" y="960" width="55" height="40" as="geometry" />
        </mxCell>
        <mxCell id="Z-YFugP0-v1G_HhNjP73-42" value="Phone nums" style="ellipse;shape=doubleEllipse;margin=3;whiteSpace=wrap;html=1;align=center;" vertex="1" parent="1">
          <mxGeometry x="17.5" y="860" width="65" height="40" as="geometry" />
        </mxCell>
        <mxCell id="Z-YFugP0-v1G_HhNjP73-43" value="Address" style="ellipse;whiteSpace=wrap;html=1;align=center;" vertex="1" parent="1">
          <mxGeometry x="97.5" y="840" width="55" height="40" as="geometry" />
        </mxCell>
        <mxCell id="Z-YFugP0-v1G_HhNjP73-44" value="Certificate" style="ellipse;whiteSpace=wrap;html=1;align=center;" vertex="1" parent="1">
          <mxGeometry x="190" y="840" width="60" height="40" as="geometry" />
        </mxCell>
      </root>
    </mxGraphModel>
  </diagram>
</mxfile>
